<?xml version="1.0" encoding="UTF-8"?>
<svg version="1.1" xmlns="http://www.w3.org/2000/svg" width="500" height="500">
<path d="M0 0 C165 0 330 0 500 0 C500 165 500 330 500 500 C335 500 170 500 0 500 C0 335 0 170 0 0 Z " fill="#130432" transform="translate(0,0)"/>
<path d="M0 0 C-3.75 3 -3.75 3 -6 3 C-6 3.66 -6 4.32 -6 5 C-6.66 5 -7.32 5 -8 5 C-8.268125 5.556875 -8.53625 6.11375 -8.8125 6.6875 C-10 9 -10 9 -11.6875 11.125 C-14.20311057 16.63538506 -12.34057871 23.25466266 -11 29 C-10.34 29 -9.68 29 -9 29 C-6.98821609 31.33366933 -5.98404829 33.04785514 -5 36 C-2.98491642 36.73323796 -2.98491642 36.73323796 -1 37 C-1 37.66 -1 38.32 -1 39 C-0.10796875 39.04898438 0.7840625 39.09796875 1.703125 39.1484375 C2.87359375 39.22320312 4.0440625 39.29796875 5.25 39.375 C6.41015625 39.44460937 7.5703125 39.51421875 8.765625 39.5859375 C12 40 12 40 16 42 C9.73 41.67 3.46 41.34 -3 41 C-2.05125 42.258125 -1.1025 43.51625 -0.125 44.8125 C1.65724528 47.17591221 3.35676124 49.53514186 5 52 C10.65780331 53.88593444 17.24985216 53.43753696 23 52 C23.495 51.01 23.495 51.01 24 50 C26.5625 49.375 26.5625 49.375 29 49 C29 49.66 29 50.32 29 51 C27.20703125 52.47265625 27.20703125 52.47265625 24.8125 54.0625 C24.03519531 54.58972656 23.25789063 55.11695313 22.45703125 55.66015625 C19.93014494 57.03809267 17.83357045 57.59232823 15 58 C15.33 58.66 15.66 59.32 16 60 C16.75467611 68.35948926 15.92028057 76.45734134 11.3125 83.625 C7.87189481 85.67076525 4.82121522 85.81785002 1 85 C-1.91869211 83.65482047 -4.57915208 82.12468035 -7 80 C-7 79.34 -7 78.68 -7 78 C-7.66 78 -8.32 78 -9 78 C-10.2890625 76.3203125 -10.2890625 76.3203125 -11.625 74.125 C-12.07101563 73.40570313 -12.51703125 72.68640625 -12.9765625 71.9453125 C-14 70 -14 70 -14 68 C-14.66 68 -15.32 68 -16 68 C-18 63.25 -18 63.25 -18 61 C-18.30292969 61.59167969 -18.60585937 62.18335938 -18.91796875 62.79296875 C-23.50852598 71.45146592 -29.12478699 76.71541441 -38 81 C-39.485 81.99 -39.485 81.99 -41 83 C-46.01252096 76.99870779 -46.23553298 69.37969405 -46.16796875 61.8125 C-46 60 -46 60 -45 58 C-45.804375 57.979375 -46.60875 57.95875 -47.4375 57.9375 C-52.59078071 56.5813735 -55.99293177 53.41046029 -60 50 C-59.67 49.34 -59.34 48.68 -59 48 C-57.824375 48.5259375 -57.824375 48.5259375 -56.625 49.0625 C-55.75875 49.371875 -54.8925 49.68125 -54 50 C-53.01 49.505 -53.01 49.505 -52 49 C-51.33333333 50.33333333 -50.66666667 51.66666667 -50 53 C-47.89590361 53.02701408 -45.79170822 53.04640223 -43.6875 53.0625 C-42.51574219 53.07410156 -41.34398437 53.08570313 -40.13671875 53.09765625 C-36.96940805 53.14899898 -36.96940805 53.14899898 -34 52 C-33.28738746 50.69064688 -32.62858872 49.35170206 -32 48 C-30.8237752 46.39267019 -29.6136253 44.80975038 -28.375 43.25 C-27.74335938 42.45078125 -27.11171875 41.6515625 -26.4609375 40.828125 C-25.97882813 40.22484375 -25.49671875 39.6215625 -25 39 C-25.495 38.4225 -25.99 37.845 -26.5 37.25 C-28 35 -28 35 -28 31 C-27.34 31 -26.68 31 -26 31 C-25.34 31.66 -24.68 32.32 -24 33 C-19.32403927 30.09567657 -18.71347897 26.9406157 -17.4765625 21.7890625 C-16.86108887 18.18702829 -16.94812969 15.50623437 -18 12 C-19.96509909 9.2299003 -19.96509909 9.2299003 -22 7 C-22 6.34 -22 5.68 -22 5 C-22.66 5 -23.32 5 -24 5 C-24 4.34 -24 3.68 -24 3 C-25.32 2.34 -26.64 1.68 -28 1 C-25 0 -25 0 -22.9921875 0.92578125 C-22.29351562 1.38339844 -21.59484375 1.84101563 -20.875 2.3125 C-20.17117187 2.76238281 -19.46734375 3.21226562 -18.7421875 3.67578125 C-17 5 -17 5 -16 7 C-15.34 7 -14.68 7 -14 7 C-13.2575 6.236875 -12.515 5.47375 -11.75 4.6875 C-8.13091881 1.15067065 -5.07861849 -1.69287283 0 0 Z " fill="#311045" transform="translate(265,160)"/>
<path d="M0 0 C3.77571367 0.90749609 5.60219978 2.70891948 8.2265625 5.53515625 C8.2265625 6.19515625 8.2265625 6.85515625 8.2265625 7.53515625 C8.8865625 7.53515625 9.5465625 7.53515625 10.2265625 7.53515625 C13.39851356 10.85968217 16.00795476 14.47399752 16.5 19.11328125 C16.00572039 25.08124986 14.54240092 30.87623066 10.5390625 35.47265625 C10.1059375 35.82328125 9.6728125 36.17390625 9.2265625 36.53515625 C8.2365625 36.20515625 7.2465625 35.87515625 6.2265625 35.53515625 C6.2265625 36.19515625 6.2265625 36.85515625 6.2265625 37.53515625 C5.8965625 37.86515625 5.5665625 38.19515625 5.2265625 38.53515625 C6.2165625 39.19515625 7.2065625 39.85515625 8.2265625 40.53515625 C7.75101756 44.8150607 5.23972655 46.66213936 2.2265625 49.53515625 C1.5253125 50.42203125 0.8240625 51.30890625 0.1015625 52.22265625 C-2.02631907 54.84704352 -3.60784192 56.39873542 -7.04296875 56.80078125 C-18.57869252 56.72990123 -18.57869252 56.72990123 -21.7734375 53.53515625 C-22.8871875 53.28765625 -24.0009375 53.04015625 -25.1484375 52.78515625 C-28.7734375 51.53515625 -28.7734375 51.53515625 -30.7734375 49.34765625 C-32.11837696 45.56501401 -31.87423347 43.38794213 -30.7734375 39.53515625 C-27.56322966 35.38076963 -23.86157664 32.80055433 -18.7734375 31.53515625 C-14.44573504 31.0138073 -10.12737927 30.7250274 -5.7734375 30.53515625 C-6.12277344 29.84808594 -6.47210938 29.16101563 -6.83203125 28.453125 C-7.51458984 27.10154297 -7.51458984 27.10154297 -8.2109375 25.72265625 C-8.66339844 24.82933594 -9.11585938 23.93601563 -9.58203125 23.015625 C-12.19817213 17.56890546 -12.49459095 12.49103533 -11.7734375 6.53515625 C-9.61404185 0.99446301 -5.58850247 -0.36446755 0 0 Z " fill="#4E1C56" transform="translate(232.7734375,157.46484375)"/>
<path d="M0 0 C2.43119623 1.87015094 3.64069173 3.28138345 5 6 C6.09871976 14.75836607 3.6704714 21.1609218 0 29 C0 29.33 0 29.66 0 30 C1.12535156 30.02126953 1.12535156 30.02126953 2.2734375 30.04296875 C10.74031149 30.43752081 18.24414403 31.92221352 24.1875 38.375 C25.30887722 41.99791102 24.99403355 44.35521033 24 48 C21.25388901 51.76318913 18.40290894 52.7671855 14 54 C13.071875 54.37125 12.14375 54.7425 11.1875 55.125 C6.52162904 56.40582732 1.59072851 56.93305931 -3.0390625 55.265625 C-5.51170633 53.66973536 -6.97254488 51.83955632 -8.75 49.5 C-9.36359375 48.7059375 -9.9771875 47.911875 -10.609375 47.09375 C-12 45 -12 45 -12 43 C-7.05 43 -2.1 43 3 43 C-1.95 42.67 -6.9 42.34 -12 42 C-11.01 41.505 -11.01 41.505 -10 41 C-10.99 40.34 -11.98 39.68 -13 39 C-13.495 39.495 -13.495 39.495 -14 40 C-16.18700941 37.81299059 -16.3802485 36.92168566 -17 34 C-17.495 32.515 -17.495 32.515 -18 31 C-18.66 31 -19.32 31 -20 31 C-23.86003577 20.16136849 -23.86003577 20.16136849 -22 14 C-20.5189817 11.37854601 -18.95297923 9.33404835 -17 7 C-16.34 7 -15.68 7 -15 7 C-15 6.34 -15 5.68 -15 5 C-9.88262942 0.52230074 -6.79766485 -1.00293416 0 0 Z " fill="#270C3E" transform="translate(274,158)"/>
<path d="M0 0 C-3.75 3 -3.75 3 -6 3 C-6 3.66 -6 4.32 -6 5 C-6.66 5 -7.32 5 -8 5 C-8.268125 5.556875 -8.53625 6.11375 -8.8125 6.6875 C-10 9 -10 9 -11.6875 11.125 C-14.20311057 16.63538506 -12.34057871 23.25466266 -11 29 C-10.34 29 -9.68 29 -9 29 C-6.98821609 31.33366933 -5.98404829 33.04785514 -5 36 C-2.98491642 36.73323796 -2.98491642 36.73323796 -1 37 C-1 37.66 -1 38.32 -1 39 C-0.10796875 39.04898438 0.7840625 39.09796875 1.703125 39.1484375 C2.87359375 39.22320312 4.0440625 39.29796875 5.25 39.375 C6.41015625 39.44460937 7.5703125 39.51421875 8.765625 39.5859375 C12 40 12 40 16 42 C9.73 41.67 3.46 41.34 -3 41 C-2.05125 42.258125 -1.1025 43.51625 -0.125 44.8125 C1.65724528 47.17591221 3.35676124 49.53514186 5 52 C10.65780331 53.88593444 17.24985216 53.43753696 23 52 C23.495 51.01 23.495 51.01 24 50 C26.5625 49.375 26.5625 49.375 29 49 C29 49.66 29 50.32 29 51 C27.20703125 52.47265625 27.20703125 52.47265625 24.8125 54.0625 C24.03519531 54.58972656 23.25789063 55.11695313 22.45703125 55.66015625 C19.93014494 57.03809267 17.83357045 57.59232823 15 58 C15.33 58.66 15.66 59.32 16 60 C16.12145993 61.83037287 16.17543185 63.66564133 16.1875 65.5 C16.20167969 66.4796875 16.21585937 67.459375 16.23046875 68.46875 C16 71 16 71 14 73 C13.75765625 72.20335937 13.5153125 71.40671875 13.265625 70.5859375 C10.8042682 62.1499684 10.8042682 62.1499684 6 55 C2.68815293 54.22868094 2.68815293 54.22868094 -1 54 C-2.45199946 53.49849567 -3.89033558 52.95573865 -5.3125 52.375 C-6.529375 51.92125 -7.74625 51.4675 -9 51 C-9.99 51.495 -9.99 51.495 -11 52 C-11 51.34 -11 50.68 -11 50 C-11.66 50 -12.32 50 -13 50 C-13 49.34 -13 48.68 -13 48 C-13.99 48 -14.98 48 -16 48 C-16 48.66 -16 49.32 -16 50 C-17.8125 50.625 -17.8125 50.625 -20 51 C-20.99 50.34 -21.98 49.68 -23 49 C-23.33 49.99 -23.66 50.98 -24 52 C-26.6741161 52.75766623 -29.28891096 53.41978587 -32 54 C-35.00304053 54.68250921 -36.45560652 55.19322671 -38.19140625 57.765625 C-40.18815835 61.52258016 -41 63.63513434 -41 68 C-41.99 68.495 -41.99 68.495 -43 69 C-44.13350534 71.01669827 -44.13350534 71.01669827 -45 73 C-45.84604751 70.05897771 -46.13522521 67.43233732 -46.125 64.375 C-46.12757813 63.59898437 -46.13015625 62.82296875 -46.1328125 62.0234375 C-46 60 -46 60 -45 58 C-45.804375 57.979375 -46.60875 57.95875 -47.4375 57.9375 C-52.59078071 56.5813735 -55.99293177 53.41046029 -60 50 C-59.67 49.34 -59.34 48.68 -59 48 C-57.824375 48.5259375 -57.824375 48.5259375 -56.625 49.0625 C-55.75875 49.371875 -54.8925 49.68125 -54 50 C-53.01 49.505 -53.01 49.505 -52 49 C-51.33333333 50.33333333 -50.66666667 51.66666667 -50 53 C-47.89590361 53.02701408 -45.79170822 53.04640223 -43.6875 53.0625 C-42.51574219 53.07410156 -41.34398437 53.08570313 -40.13671875 53.09765625 C-36.96940805 53.14899898 -36.96940805 53.14899898 -34 52 C-33.28738746 50.69064688 -32.62858872 49.35170206 -32 48 C-30.8237752 46.39267019 -29.6136253 44.80975038 -28.375 43.25 C-27.74335938 42.45078125 -27.11171875 41.6515625 -26.4609375 40.828125 C-25.97882813 40.22484375 -25.49671875 39.6215625 -25 39 C-25.495 38.4225 -25.99 37.845 -26.5 37.25 C-28 35 -28 35 -28 31 C-27.34 31 -26.68 31 -26 31 C-25.34 31.66 -24.68 32.32 -24 33 C-19.32403927 30.09567657 -18.71347897 26.9406157 -17.4765625 21.7890625 C-16.86108887 18.18702829 -16.94812969 15.50623437 -18 12 C-19.96509909 9.2299003 -19.96509909 9.2299003 -22 7 C-22 6.34 -22 5.68 -22 5 C-22.66 5 -23.32 5 -24 5 C-24 4.34 -24 3.68 -24 3 C-25.32 2.34 -26.64 1.68 -28 1 C-25 0 -25 0 -22.9921875 0.92578125 C-22.29351562 1.38339844 -21.59484375 1.84101563 -20.875 2.3125 C-20.17117187 2.76238281 -19.46734375 3.21226562 -18.7421875 3.67578125 C-17 5 -17 5 -16 7 C-15.34 7 -14.68 7 -14 7 C-13.2575 6.236875 -12.515 5.47375 -11.75 4.6875 C-8.13091881 1.15067065 -5.07861849 -1.69287283 0 0 Z " fill="#F361BD" transform="translate(265,160)"/>
<path d="M0 0 C1.98 0 3.96 0 6 0 C6.33 1.32 6.66 2.64 7 4 C7.928125 3.01 7.928125 3.01 8.875 2 C13.25713169 -0.80456428 16.92468132 -0.68914072 22 0 C27.57608696 2.15217391 27.57608696 2.15217391 29 5 C31.18838028 3.9839663 32.98533596 3.012329 34.83984375 1.453125 C38.62677229 -1.0943206 42.60813511 -0.59459094 47 0 C51.04299206 1.26249566 53.47354312 3.1184908 55.6796875 6.8125 C57.91732916 12.4194053 57.3136516 18.5083746 57.1875 24.4375 C57.16719727 26.25024414 57.16719727 26.25024414 57.14648438 28.09960938 C57.11129946 31.06687082 57.06206696 34.03319937 57 37 C54.69 37 52.38 37 50 37 C49.970271 35.79670044 49.970271 35.79670044 49.93994141 34.5690918 C49.84480505 30.94155823 49.7350792 27.31460955 49.625 23.6875 C49.5940625 22.42486328 49.563125 21.16222656 49.53125 19.86132812 C49.47324219 18.04858398 49.47324219 18.04858398 49.4140625 16.19921875 C49.3826416 15.08377686 49.3512207 13.96833496 49.31884766 12.8190918 C49.194751 9.79631214 49.194751 9.79631214 47 7 C44.02452627 6.04072565 41.11526478 5.80044567 38 6 C35.44848032 7.84985177 34.39023285 9.2195343 33 12 C32.84655791 13.88472859 32.75040429 15.77427874 32.68359375 17.6640625 C32.62075195 19.34628906 32.62075195 19.34628906 32.55664062 21.0625 C32.51732422 22.238125 32.47800781 23.41375 32.4375 24.625 C32.37272461 26.40003906 32.37272461 26.40003906 32.30664062 28.2109375 C32.20032574 31.14050328 32.09829358 34.07015588 32 37 C29.69 37 27.38 37 25 37 C24.97494385 36.19780029 24.9498877 35.39560059 24.92407227 34.5690918 C24.80817957 30.94172926 24.68542249 27.31463083 24.5625 23.6875 C24.52318359 22.42486328 24.48386719 21.16222656 24.44335938 19.86132812 C24.40146484 18.65283203 24.35957031 17.44433594 24.31640625 16.19921875 C24.27974854 15.08377686 24.24309082 13.96833496 24.20532227 12.8190918 C24.11068791 9.92126429 24.11068791 9.92126429 23 7 C19.65576628 6.41284446 16.40037019 5.95195709 13 6 C10.37287472 7.85821056 9.41335162 9.17329677 8 12 C7.84655791 13.88472859 7.75040429 15.77427874 7.68359375 17.6640625 C7.64169922 18.78554688 7.59980469 19.90703125 7.55664062 21.0625 C7.49766602 22.8259375 7.49766602 22.8259375 7.4375 24.625 C7.39431641 25.80835938 7.35113281 26.99171875 7.30664062 28.2109375 C7.20032574 31.14050328 7.09829358 34.07015588 7 37 C4.69 37 2.38 37 0 37 C0 24.79 0 12.58 0 0 Z " fill="#ECEBEE" transform="translate(248,286)"/>
<path d="M0 0 C4.96474965 2.46582566 7.26041703 5.82814379 9 11 C9.22705078 13.9543457 9.22705078 13.9543457 9.1953125 17.17578125 C9.18886719 18.33271484 9.18242187 19.48964844 9.17578125 20.68164062 C9.15902344 21.87982422 9.14226562 23.07800781 9.125 24.3125 C9.11597656 25.53001953 9.10695313 26.74753906 9.09765625 28.00195312 C9.07413037 31.00150274 9.04125653 34.00065044 9 37 C7.02 37 5.04 37 3 37 C2.505 34.525 2.505 34.525 2 32 C1.21625 32.804375 0.4325 33.60875 -0.375 34.4375 C-4.39444682 38.3612457 -7.01300976 38.33623113 -12.453125 38.2890625 C-16.12655571 37.87213938 -18.25299675 36.40362785 -21 34 C-23.67375977 29.98936034 -23.82035715 26.714982 -23 22 C-20.44712644 18.66708174 -17.91728899 16.46898337 -14 15 C-11.21175242 14.86002773 -8.53172884 14.8111087 -5.75 14.875 C-5.00492187 14.88402344 -4.25984375 14.89304687 -3.4921875 14.90234375 C-1.66131941 14.92581642 0.16938238 14.96168475 2 15 C1.04420827 10.27129918 1.04420827 10.27129918 -1.6875 6.5625 C-4.96818598 5.7644953 -7.63571399 5.63954078 -11 6 C-13.36497439 7.86708505 -14.66030715 9.32061431 -16 12 C-18.31 12 -20.62 12 -23 12 C-21.67761712 6.31375361 -19.55651636 4.32245984 -15 1 C-10.52788704 -1.23605648 -4.84021613 -0.61078918 0 0 Z " fill="#F0EFF2" transform="translate(336,286)"/>
<path d="M0 0 C2 3.875 2 3.875 2 5 C-0.64 5.33 -3.28 5.66 -6 6 C-4.86111328 6.03867188 -4.86111328 6.03867188 -3.69921875 6.078125 C-2.70535156 6.13484375 -1.71148437 6.1915625 -0.6875 6.25 C0.29863281 6.29640625 1.28476563 6.3428125 2.30078125 6.390625 C5 7 5 7 8 11 C1.565 11.495 1.565 11.495 -5 12 C-3.58574328 12 -2.17137436 11.97401522 -0.7578125 11.9296875 C0.54542969 11.90261719 0.54542969 11.90261719 1.875 11.875 C2.73867187 11.85179687 3.60234375 11.82859375 4.4921875 11.8046875 C7.14336372 12.0111654 8.72940944 12.65876744 11 14 C10.38525348 17.3436213 9.18085051 19.43500655 7.125 22.125 C6.61195313 22.80820313 6.09890625 23.49140625 5.5703125 24.1953125 C3.52922745 26.54103711 1.86739431 27.89848053 -1.26953125 28.265625 C-12.80525502 28.19474498 -12.80525502 28.19474498 -16 25 C-17.11375 24.7525 -18.2275 24.505 -19.375 24.25 C-23 23 -23 23 -25 20.8125 C-26.34493946 17.02985776 -26.10079597 14.85278588 -25 11 C-21.78979216 6.84561338 -18.08813914 4.26539808 -13 3 C-8.67229754 2.47865105 -4.35394177 2.18987115 0 2 C0 1.34 0 0.68 0 0 Z " fill="#321145" transform="translate(227,186)"/>
<path d="M0 0 C1.98 0 3.96 0 6 0 C6 12.21 6 24.42 6 37 C4.02 37 2.04 37 0 37 C-0.33 35.68 -0.66 34.36 -1 33 C-2.175625 33.9590625 -2.175625 33.9590625 -3.375 34.9375 C-7.33281126 38.04720885 -9.75433029 38.34459865 -14.6796875 38.28125 C-18.28039012 37.8448012 -20.31504488 36.36531761 -23 34 C-25.91846889 30.04333375 -26.35974206 27.26117065 -26.29296875 22.38671875 C-26.28330078 21.13955078 -26.27363281 19.89238281 -26.26367188 18.60742188 C-26.2259668 16.66706055 -26.2259668 16.66706055 -26.1875 14.6875 C-26.17396484 13.37458984 -26.16042969 12.06167969 -26.14648438 10.70898438 C-26.11117443 7.47223923 -26.0618528 4.23632895 -26 1 C-24.02 1 -22.04 1 -20 1 C-19.98541748 1.73114014 -19.97083496 2.46228027 -19.95581055 3.21557617 C-19.8811709 6.54007371 -19.78456199 9.86358467 -19.6875 13.1875 C-19.66494141 14.33798828 -19.64238281 15.48847656 -19.61914062 16.67382812 C-19.58369141 17.78564453 -19.54824219 18.89746094 -19.51171875 20.04296875 C-19.48553467 21.06414795 -19.45935059 22.08532715 -19.43237305 23.13745117 C-18.9374637 26.41402488 -17.97165742 28.35323181 -16 31 C-12.62942883 31.90594651 -9.41875204 31.62210078 -6 31 C-3.42362529 29.11484777 -2.40332572 27.80665143 -1 25 C-0.84655791 23.11527141 -0.75040429 21.22572126 -0.68359375 19.3359375 C-0.64169922 18.21445312 -0.59980469 17.09296875 -0.55664062 15.9375 C-0.51732422 14.761875 -0.47800781 13.58625 -0.4375 12.375 C-0.39431641 11.19164062 -0.35113281 10.00828125 -0.30664062 8.7890625 C-0.20032574 5.85949672 -0.09829358 2.92984412 0 0 Z " fill="#F5F4F6" transform="translate(232,286)"/>
<path d="M0 0 C18.08134758 -0.79868529 18.08134758 -0.79868529 25 4 C27.125 6 27.125 6 28 8 C27.6875 10.25 27.6875 10.25 27 12 C26.5875 11.195625 26.175 10.39125 25.75 9.5625 C24.28581702 6.85026199 24.28581702 6.85026199 21.890625 6.33984375 C21.26671875 6.22769531 20.6428125 6.11554688 20 6 C20.3609375 6.62648437 20.721875 7.25296875 21.09375 7.8984375 C21.5578125 8.71570313 22.021875 9.53296875 22.5 10.375 C22.9640625 11.18710938 23.428125 11.99921875 23.90625 12.8359375 C25 15 25 15 25 17 C10.56328119 23.04453274 10.56328119 23.04453274 2.98046875 20.2578125 C0.48522692 18.67306325 -0.96492712 16.84958311 -2.75 14.5 C-3.67039062 13.30890625 -3.67039062 13.30890625 -4.609375 12.09375 C-6 10 -6 10 -6 8 C-1.05 8 3.9 8 9 8 C4.05 7.67 -0.9 7.34 -6 7 C-6 6.67 -6 6.34 -6 6 C0.59282829 4.29862496 7.37433627 4.64088949 14 6 C10.43928688 4.95117609 6.94472103 4.69613047 3.25 4.4375 C2.07953125 4.35371094 0.9090625 4.26992187 -0.296875 4.18359375 C-1.18890625 4.12300781 -2.0809375 4.06242188 -3 4 C-3 3.67 -3 3.34 -3 3 C2.94 3 8.88 3 15 3 C7.575 2.01 7.575 2.01 0 1 C0 0.67 0 0.34 0 0 Z " fill="#361247" transform="translate(268,193)"/>
<path d="M0 0 C0.495 1.485 0.495 1.485 1 3 C1.99 3 2.98 3 4 3 C4 3.99 4 4.98 4 6 C5.32 6.33 6.64 6.66 8 7 C8.495 8.98 8.495 8.98 9 11 C7.02 11.99 7.02 11.99 5 13 C5.33 11.68 5.66 10.36 6 9 C5.34 9 4.68 9 4 9 C3.67 9.99 3.34 10.98 3 12 C2.01 12 1.02 12 0 12 C0 12.66 0 13.32 0 14 C-0.804375 14.28875 -1.60875 14.5775 -2.4375 14.875 C-5.1326468 15.73262568 -5.1326468 15.73262568 -6 18 C-6.99 17.34 -7.98 16.68 -9 16 C-9.495 17.485 -9.495 17.485 -10 19 C-12.6741161 19.75766623 -15.28891096 20.41978587 -18 21 C-21.00304053 21.68250921 -22.45560652 22.19322671 -24.19140625 24.765625 C-26.18815835 28.52258016 -27 30.63513434 -27 35 C-27.99 35.495 -27.99 35.495 -29 36 C-30.13350534 38.01669827 -30.13350534 38.01669827 -31 40 C-31.84604751 37.05897771 -32.13522521 34.43233732 -32.125 31.375 C-32.12757813 30.59898437 -32.13015625 29.82296875 -32.1328125 29.0234375 C-32 27 -32 27 -31 25 C-31.804375 24.979375 -32.60875 24.95875 -33.4375 24.9375 C-38.59078071 23.5813735 -41.99293177 20.41046029 -46 17 C-45.67 16.34 -45.34 15.68 -45 15 C-44.21625 15.350625 -43.4325 15.70125 -42.625 16.0625 C-41.75875 16.371875 -40.8925 16.68125 -40 17 C-39.34 16.67 -38.68 16.34 -38 16 C-37.33333333 17.33333333 -36.66666667 18.66666667 -36 20 C-33.89590361 20.02701408 -31.79170822 20.04640223 -29.6875 20.0625 C-28.51574219 20.07410156 -27.34398437 20.08570313 -26.13671875 20.09765625 C-22.96940805 20.14899898 -22.96940805 20.14899898 -20 19 C-19.28536194 17.6917513 -18.62650037 16.35267125 -18 15 C-16.86667522 13.43365962 -15.69782551 11.89258402 -14.5 10.375 C-13.8915625 9.59898437 -13.283125 8.82296875 -12.65625 8.0234375 C-11 6 -11 6 -9 4 C-8.34 4.33 -7.68 4.66 -7 5 C-5.81231727 3.81231727 -4.63926438 2.60920308 -3.5 1.375 C-2 0 -2 0 0 0 Z " fill="#F562BE" transform="translate(251,193)"/>
<path d="M0 0 C0.598125 0.33 1.19625 0.66 1.8125 1 C4.05386471 2.20787988 4.05386471 2.20787988 7 2 C7.66 2.33 8.32 2.66 9 3 C9 3.66 9 4.32 9 5 C9.66 5 10.32 5 11 5 C14.24431375 8.40036934 16.82694058 11.99988699 17.23828125 16.75390625 C16.65285543 23.34714457 16.65285543 23.34714457 14 26 C13.54625 25.505 13.0925 25.01 12.625 24.5 C11.12364481 22.77390663 11.12364481 22.77390663 9 23 C9.66 24.98 10.32 26.96 11 29 C7.31909035 25.85410629 6.07695091 21.78409165 4.28125 17.3984375 C3.18160878 14.6784419 3.18160878 14.6784419 0 14 C0 16.05644489 0.90875913 18.11633213 1.5 20.0625 C1.7784375 20.98160156 2.056875 21.90070313 2.34375 22.84765625 C2.5603125 23.55792969 2.776875 24.26820313 3 25 C2.34 25 1.68 25 1 25 C0.34 24.01 -0.32 23.02 -1 22 C-1.99 22 -2.98 22 -4 22 C-6.27061165 16.16128433 -7.65042817 11.28747229 -7 5 C-5.5 3 -5.5 3 -4 2 C-3.67 2.33 -3.34 2.66 -3 3 C-2.01 2.01 -1.02 1.02 0 0 Z " fill="#20093A" transform="translate(232,160)"/>
<path d="M0 0 C2.31 0 4.62 0 7 0 C7 17.49 7 34.98 7 53 C4.69 53 2.38 53 0 53 C0 35.51 0 18.02 0 0 Z " fill="#E5E3E8" transform="translate(190,270)"/>
<path d="M0 0 C-1.34385207 8.781917 -7.16466068 16.50675927 -14 22 C-15.31327313 22.70536225 -16.64270287 23.38358558 -18 24 C-17.34 24 -16.68 24 -16 24 C-16 24.66 -16 25.32 -16 26 C-18.31 26 -20.62 26 -23 26 C-25.18089245 19.45732265 -23.86153581 14.01531358 -21 8 C-17.75074442 2.23519172 -17.75074442 2.23519172 -15.1171875 1.41015625 C-14.06917969 1.20712891 -14.06917969 1.20712891 -13 1 C-12.35160156 0.81179687 -11.70320312 0.62359375 -11.03515625 0.4296875 C-7.00694021 -0.70299899 -4.11997517 -1.28749224 0 0 Z " fill="#301044" transform="translate(246,212)"/>
<path d="M0 0 C0.33 0.66 0.66 1.32 1 2 C1.70769531 1.83242187 2.41539062 1.66484375 3.14453125 1.4921875 C12.06831256 -0.04597453 20.57064763 1.8832865 28 7 C30.85621245 10.10103066 31.01152798 11.3429053 30.9375 15.5625 C29.93464909 19.23962001 28.92447412 20.64155313 26 23 C24.9944239 21.54550599 23.99569565 20.08627557 23 18.625 C22.443125 17.81289062 21.88625 17.00078125 21.3125 16.1640625 C20 14 20 14 20 12 C22.375 12.3125 22.375 12.3125 25 13 C25.66 13.99 26.32 14.98 27 16 C26.65060634 13.56469493 26.65060634 13.56469493 25 11 C20.26611046 7.99450826 15.64690212 6.42083055 10 7 C12.64 7.66 15.28 8.32 18 9 C14 10 14 10 10 10 C12.97 10.99 15.94 11.98 19 13 C15.50205935 14.16598022 13.90363651 13.43891564 10.4609375 12.47265625 C6.52275897 11.71627593 2.62862626 11.96143913 -1.36328125 12.125 C-4 12 -4 12 -7 10 C-7.33 10.33 -7.66 10.66 -8 11 C-8.66 10.34 -9.32 9.68 -10 9 C-9.625 6.375 -9.625 6.375 -9 4 C-6.94061515 3.48515379 -4.89460574 2.97892115 -2.8125 2.5625 C-2.214375 2.376875 -1.61625 2.19125 -1 2 C-0.67 1.34 -0.34 0.68 0 0 Z " fill="#642664" transform="translate(268,187)"/>
<path d="M0 0 C1.98 0 3.96 0 6 0 C6 17.49 6 34.98 6 53 C4.02 53 2.04 53 0 53 C0 35.51 0 18.02 0 0 Z " fill="#FDFDFD" transform="translate(174,270)"/>
<path d="M0 0 C0.66 0.33 1.32 0.66 2 1 C3.66194453 1.35613097 5.328451 1.69208308 7 2 C7 1.34 7 0.68 7 0 C7.99 0 8.98 0 10 0 C10 0.66 10 1.32 10 2 C10.66 2 11.32 2 12 2 C12.8744439 6.54710827 13.22932033 8.9593569 11 13 C11.29805007 15.19747131 11.29805007 15.19747131 12 17 C12.928125 17.0928125 12.928125 17.0928125 13.875 17.1875 C16 18 16 18 17.25 20.5625 C17.4975 21.366875 17.745 22.17125 18 23 C11.125 20.25 11.125 20.25 10 18 C9.67 18.66 9.34 19.32 9 20 C8.34 20 7.68 20 7 20 C5 15.25 5 15.25 5 13 C4.69707031 13.59167969 4.39414063 14.18335938 4.08203125 14.79296875 C-0.50852598 23.45146592 -6.12478699 28.71541441 -15 33 C-15.99 33.66 -16.98 34.32 -18 35 C-20.82901615 31.80198175 -21.73357234 29.26284248 -22 25 C-21.0625 22.625 -21.0625 22.625 -20 21 C-19.67 23.64 -19.34 26.28 -19 29 C-16.69 29.33 -14.38 29.66 -12 30 C-12 29.34 -12 28.68 -12 28 C-13.98 28.33 -15.96 28.66 -18 29 C-16 27 -16 27 -12.875 25.9375 C-5.22270421 22.7583625 -0.61452409 15.18437826 2.50390625 7.84765625 C3.23923465 5.92525797 3.23923465 5.92525797 2 4 C1.01 3.67 0.02 3.34 -1 3 C-0.67 2.01 -0.34 1.02 0 0 Z " fill="#6C2969" transform="translate(242,208)"/>
<path d="M0 0 C2.43119623 1.87015094 3.64069173 3.28138345 5 6 C5.07033769 7.87379605 5.0843022 9.75001102 5.0625 11.625 C5.05347656 12.62789062 5.04445313 13.63078125 5.03515625 14.6640625 C5.02355469 15.43492187 5.01195312 16.20578125 5 17 C4.67 17 4.34 17 4 17 C4 13.7 4 10.4 4 7 C3.34 7 2.68 7 2 7 C2.02320313 7.61488281 2.04640625 8.22976562 2.0703125 8.86328125 C2.09738281 10.07564453 2.09738281 10.07564453 2.125 11.3125 C2.14820313 12.11300781 2.17140625 12.91351563 2.1953125 13.73828125 C2 16 2 16 0 19 C0 15.04 0 11.08 0 7 C-0.33 7 -0.66 7 -1 7 C-0.95875 8.0725 -0.9175 9.145 -0.875 10.25 C-0.9925745 13.77723487 -1.34847907 15.061073 -3 18 C-2.98839844 17.33613281 -2.97679687 16.67226562 -2.96484375 15.98828125 C-2.88106591 9.43693213 -2.88106591 9.43693213 -4 3 C-4.66 3 -5.32 3 -6 3 C-5.67 3.66 -5.34 4.32 -5 5 C-4.92934383 7.04055005 -4.91578024 9.08334257 -4.9375 11.125 C-4.94652344 12.22070312 -4.95554687 13.31640625 -4.96484375 14.4453125 C-4.97644531 15.28835937 -4.98804688 16.13140625 -5 17 C-5.33 17 -5.66 17 -6 17 C-6.33 13.37 -6.66 9.74 -7 6 C-7.33 6 -7.66 6 -8 6 C-7.97679687 6.71285156 -7.95359375 7.42570313 -7.9296875 8.16015625 C-7.76410312 16.94795603 -7.76410312 16.94795603 -9.0625 21 C-10.3228592 24.00609168 -10.3228592 24.00609168 -9 27 C-9.99 27.99 -10.98 28.98 -12 30 C-12 29.01 -12 28.02 -12 27 C-12.99 27.99 -13.98 28.98 -15 30 C-14.690625 29.236875 -14.38125 28.47375 -14.0625 27.6875 C-13.32106407 25.81210323 -12.63771783 23.91315348 -12 22 C-12.66 22 -13.32 22 -14 22 C-13.7525 20.515 -13.7525 20.515 -13.5 19 C-12.91525483 14.97267058 -12.92867976 11.06525377 -13 7 C-13.33 9.64 -13.66 12.28 -14 15 C-14.33 15 -14.66 15 -15 15 C-15 12.69 -15 10.38 -15 8 C-15.66 7.67 -16.32 7.34 -17 7 C-16.34 7 -15.68 7 -15 7 C-15 6.34 -15 5.68 -15 5 C-9.88262942 0.52230074 -6.79766485 -1.00293416 0 0 Z " fill="#58205C" transform="translate(274,158)"/>
<path d="M0 0 C0.66 0 1.32 0 2 0 C3.66666667 1.66666667 5.33333333 3.33333333 7 5 C9.95178633 7.01585408 12.47891813 8.3479478 16 9 C16.33 8.34 16.66 7.68 17 7 C18.36959468 10.11271517 17.90994332 11.25666155 16.75 14.5625 C14.09919571 19.769437 14.09919571 19.769437 12 21 C5.87517069 21.83048533 2.5819756 20.65199164 -2.53125 17.2890625 C-3.0159375 16.86367187 -3.500625 16.43828125 -4 16 C-4 15.34 -4 14.68 -4 14 C-4.66 14 -5.32 14 -6 14 C-7.625 12 -7.625 12 -9 10 C-8.67 9.34 -8.34 8.68 -8 8 C-7.34 8.33 -6.68 8.66 -6 9 C-5.67 8.34 -5.34 7.68 -5 7 C-3.66070495 8.28548409 -2.32871357 9.57858155 -1 10.875 C-0.2575 11.59429687 0.485 12.31359375 1.25 13.0546875 C3 15 3 15 3 17 C6.465 16.505 6.465 16.505 10 16 C8.35 15.34 6.7 14.68 5 14 C7.6666419 12.66667905 9.16680303 13.32897967 12 14 C11.32453125 13.61328125 10.6490625 13.2265625 9.953125 12.828125 C9.06109375 12.30734375 8.1690625 11.7865625 7.25 11.25 C6.36828125 10.73953125 5.4865625 10.2290625 4.578125 9.703125 C2.01371615 8.00906097 0.01520773 6.3165472 -2 4 C-2 2 -2 2 0 0 Z " fill="#4B1B55" transform="translate(262,224)"/>
<path d="M0 0 C1.98 0 3.96 0 6 0 C6 11.88 6 23.76 6 36 C4.02 36 2.04 36 0 36 C0 24.12 0 12.24 0 0 Z " fill="#FFFFFF" transform="translate(157,287)"/>
<path d="M0 0 C1.93448755 3.65836557 2.63359929 5.80240471 2 10 C-1.21662336 16.81239243 -6.06101765 21.95617749 -13 25 C-15.87673566 25.44367565 -18.07431974 25.31916512 -21 25 C-21.33 23.35 -21.66 21.7 -22 20 C-21.32453125 19.73445313 -20.6490625 19.46890625 -19.953125 19.1953125 C-19.06109375 18.84210938 -18.1690625 18.48890625 -17.25 18.125 C-16.36828125 17.77695313 -15.4865625 17.42890625 -14.578125 17.0703125 C-13.72734375 16.71710938 -12.8765625 16.36390625 -12 16 C-10.90945312 15.56300781 -10.90945312 15.56300781 -9.796875 15.1171875 C-7.5061501 13.6929542 -7.05661899 12.46253352 -6 10 C-4.97185062 8.24202438 -3.92953531 6.49227573 -2.875 4.75 C-2.33617187 3.85796875 -1.79734375 2.9659375 -1.2421875 2.046875 C-0.83226562 1.37140625 -0.42234375 0.6959375 0 0 Z " fill="#3E154C" transform="translate(247,220)"/>
<path d="M0 0 C18.08134758 -0.79868529 18.08134758 -0.79868529 25 4 C27.125 6 27.125 6 28 8 C27.6875 10.25 27.6875 10.25 27 12 C26.5875 11.195625 26.175 10.39125 25.75 9.5625 C24.28581702 6.85026199 24.28581702 6.85026199 21.890625 6.33984375 C21.26671875 6.22769531 20.6428125 6.11554688 20 6 C20.3609375 6.62648437 20.721875 7.25296875 21.09375 7.8984375 C21.5578125 8.71570313 22.021875 9.53296875 22.5 10.375 C22.9640625 11.18710938 23.428125 11.99921875 23.90625 12.8359375 C25 15 25 15 25 17 C23.25 17.75 23.25 17.75 21 18 C19 16.1875 19 16.1875 17 14 C14.86690808 12.76487921 14.86690808 12.76487921 13 12 C13 11.34 13 10.68 13 10 C13.99 10 14.98 10 16 10 C10.94752447 8.38373344 6.3985816 7.65833177 1.0625 7.375 C0.37865234 7.33632812 -0.30519531 7.29765625 -1.00976562 7.2578125 C-2.67279513 7.16477588 -4.33635847 7.08136213 -6 7 C-6 6.67 -6 6.34 -6 6 C0.59282829 4.29862496 7.37433627 4.64088949 14 6 C10.43928688 4.95117609 6.94472103 4.69613047 3.25 4.4375 C2.07953125 4.35371094 0.9090625 4.26992187 -0.296875 4.18359375 C-1.18890625 4.12300781 -2.0809375 4.06242188 -3 4 C-3 3.67 -3 3.34 -3 3 C2.94 3 8.88 3 15 3 C7.575 2.01 7.575 2.01 0 1 C0 0.67 0 0.34 0 0 Z " fill="#20093A" transform="translate(268,193)"/>
<path d="M0 0 C1.76923828 0.01353516 1.76923828 0.01353516 3.57421875 0.02734375 C4.47785156 0.03894531 5.38148438 0.05054688 6.3125 0.0625 C6.07526019 4.0955768 5.61735596 6.60029902 3.375 10 C-0.42585074 12.55975662 -2.90109241 12.585739 -7.3828125 12.53125 C-10.10363732 11.9778619 -11.03646039 11.26388614 -12.6875 9.0625 C-13.0625 6.5625 -13.0625 6.5625 -12.6875 4.0625 C-9.35824404 -0.37650795 -5.17356034 -0.05122337 0 0 Z " fill="#170936" transform="translate(331.6875,305.9375)"/>
<path d="M0 0 C-3.75 3 -3.75 3 -6 3 C-6 3.66 -6 4.32 -6 5 C-6.66 5 -7.32 5 -8 5 C-8.268125 5.556875 -8.53625 6.11375 -8.8125 6.6875 C-10 9 -10 9 -11.6875 11.125 C-14.20311057 16.63538506 -12.34057871 23.25466266 -11 29 C-13.49092811 30.24546405 -14.41080733 29.7767578 -17 29 C-17.33 29.66 -17.66 30.32 -18 31 C-19.19994712 27.24183227 -18.45537703 24.86553316 -17.4296875 21.0859375 C-16.75124102 17.79238823 -17.14753716 15.22718077 -18 12 C-19.96509909 9.2299003 -19.96509909 9.2299003 -22 7 C-22 6.34 -22 5.68 -22 5 C-22.66 5 -23.32 5 -24 5 C-24 4.34 -24 3.68 -24 3 C-25.32 2.34 -26.64 1.68 -28 1 C-25 0 -25 0 -22.9921875 0.92578125 C-22.29351562 1.38339844 -21.59484375 1.84101563 -20.875 2.3125 C-20.17117187 2.76238281 -19.46734375 3.21226562 -18.7421875 3.67578125 C-17 5 -17 5 -16 7 C-15.34 7 -14.68 7 -14 7 C-13.2575 6.236875 -12.515 5.47375 -11.75 4.6875 C-8.13091881 1.15067065 -5.07861849 -1.69287283 0 0 Z " fill="#E35AB2" transform="translate(265,160)"/>
<path d="M0 0 C2.4962614 0.60302944 3.45930025 1.56126623 5.0859375 3.50390625 C4.0959375 4.49390625 3.1059375 5.48390625 2.0859375 6.50390625 C1.7559375 5.51390625 1.4259375 4.52390625 1.0859375 3.50390625 C-0.2340625 3.50390625 -1.5540625 3.50390625 -2.9140625 3.50390625 C-3.2440625 5.15390625 -3.5740625 6.80390625 -3.9140625 8.50390625 C-4.5740625 7.51390625 -5.2340625 6.52390625 -5.9140625 5.50390625 C-8.76601434 11.20780993 -6.4298625 18.65724911 -4.9140625 24.50390625 C-3.5940625 24.17390625 -2.2740625 23.84390625 -0.9140625 23.50390625 C0.0759375 26.47390625 1.0659375 29.44390625 2.0859375 32.50390625 C1.0959375 31.84390625 0.1059375 31.18390625 -0.9140625 30.50390625 C-2.2340625 30.50390625 -3.5540625 30.50390625 -4.9140625 30.50390625 C-4.9140625 29.84390625 -4.9140625 29.18390625 -4.9140625 28.50390625 C-5.9040625 28.17390625 -6.8940625 27.84390625 -7.9140625 27.50390625 C-11.82115966 21.15323997 -13.19719436 13.82463178 -11.9140625 6.50390625 C-9.62720917 0.7977674 -5.69201674 -0.14570009 0 0 Z " fill="#3B144B" transform="translate(232.9140625,157.49609375)"/>
<path d="M0 0 C-0.41257713 5.50102837 -2.54722675 9.76201664 -6 14 C-6.66 14 -7.32 14 -8 14 C-8.66 15.32 -9.32 16.64 -10 18 C-10.66 17.67 -11.32 17.34 -12 17 C-10 13 -8 9 -6 5 C-6.49628906 5.55429688 -6.99257812 6.10859375 -7.50390625 6.6796875 C-11.80931066 11.27102958 -14.73578429 13.95596405 -21 15 C-20.61329288 9.71500265 -18.78112595 5.69959224 -15 2 C-13.0859375 1.37109375 -13.0859375 1.37109375 -11 1 C-10.32839844 0.81179687 -9.65679687 0.62359375 -8.96484375 0.4296875 C-8.29582031 0.24664062 -7.62679687 0.06359375 -6.9375 -0.125 C-6.26589844 -0.31320313 -5.59429687 -0.50140625 -4.90234375 -0.6953125 C-3 -1 -3 -1 0 0 Z " fill="#481A53" transform="translate(244,212)"/>
<path d="M0 0 C2.3046875 0.53125 2.3046875 0.53125 4.046875 2.375 C5.3046875 4.53125 5.3046875 4.53125 6.3046875 7.53125 C8.31977108 8.26448796 8.31977108 8.26448796 10.3046875 8.53125 C10.3046875 9.19125 10.3046875 9.85125 10.3046875 10.53125 C11.64273437 10.60472656 11.64273437 10.60472656 13.0078125 10.6796875 C14.17828125 10.75445312 15.34875 10.82921875 16.5546875 10.90625 C17.71484375 10.97585937 18.875 11.04546875 20.0703125 11.1171875 C23.07195437 11.50145566 24.70452689 12.12241773 27.3046875 13.53125 C23.9090178 13.61870946 20.51363977 13.67179444 17.1171875 13.71875 C16.15748047 13.74388672 15.19777344 13.76902344 14.20898438 13.79492188 C5.23052307 13.8881239 5.23052307 13.8881239 1.3046875 10.53125 C0.9746875 9.87125 0.6446875 9.21125 0.3046875 8.53125 C-0.6853125 8.20125 -1.6753125 7.87125 -2.6953125 7.53125 C-2.6953125 6.54125 -2.6953125 5.55125 -2.6953125 4.53125 C-3.3553125 4.53125 -4.0153125 4.53125 -4.6953125 4.53125 C-4.9428125 5.15 -5.1903125 5.76875 -5.4453125 6.40625 C-6.6953125 8.53125 -6.6953125 8.53125 -8.4453125 9.96875 C-11.86659432 10.82407045 -13.76660636 9.26184908 -16.6953125 7.53125 C-16.3653125 6.87125 -16.0353125 6.21125 -15.6953125 5.53125 C-16.0253125 4.54125 -16.3553125 3.55125 -16.6953125 2.53125 C-16.0353125 2.53125 -15.3753125 2.53125 -14.6953125 2.53125 C-14.0353125 3.19125 -13.3753125 3.85125 -12.6953125 4.53125 C-12.0765625 3.87125 -11.4578125 3.21125 -10.8203125 2.53125 C-6.98198314 0.07471921 -4.45373137 0.05414871 0 0 Z " fill="#C64EA0" transform="translate(253.6953125,188.46875)"/>
<path d="M0 0 C1.175625 0.433125 1.175625 0.433125 2.375 0.875 C5.76656759 2.03711697 5.76656759 2.03711697 8.44921875 2.33203125 C15.10716356 3.23767098 15.10716356 3.23767098 17.68359375 5.4375 C20.5949931 9.30784692 21.94754796 13.31180454 23 18 C16.5403669 16.67494706 12.61082626 12.40590065 8 8 C8.99 9.32 9.98 10.64 11 12 C10.67 12.66 10.34 13.32 10 14 C8.35 12.35 6.7 10.7 5 9 C4.67 9.66 4.34 10.32 4 11 C0 4.5 0 4.5 0 0 Z " fill="#3A144A" transform="translate(255,210)"/>
<path d="M0 0 C18.79518072 -0.90361446 18.79518072 -0.90361446 24.6875 3.515625 C27.3497775 6.52653407 28.0195908 8.45145753 27.875 12.5 C26.93484821 16.26060717 25.96883153 17.60578102 23 20 C21.9944239 18.54550599 20.99569565 17.08627557 20 15.625 C19.443125 14.81289062 18.88625 14.00078125 18.3125 13.1640625 C17 11 17 11 17 9 C19.375 9.3125 19.375 9.3125 22 10 C22.99 11.485 22.99 11.485 24 13 C23.65060634 10.56469493 23.65060634 10.56469493 22 8 C19.11656315 6.35006265 16.11359044 5.14677508 13 4 C13 3.34 13 2.68 13 2 C8.38 2 3.76 2 -1 2 C-0.67 1.34 -0.34 0.68 0 0 Z " fill="#301044" transform="translate(271,190)"/>
<path d="M0 0 C1.60757949 4.82273847 -0.88763077 8.56900327 -3 13 C-6.34990728 18.38377955 -11.48461918 21.26228334 -17.0625 24.01953125 C-19.23505348 25.07058195 -19.23505348 25.07058195 -22 27 C-24.82901615 23.80198175 -25.73357234 21.26284248 -26 17 C-25.0625 14.625 -25.0625 14.625 -24 13 C-23.67 15.64 -23.34 18.28 -23 21 C-20.69 21.33 -18.38 21.66 -16 22 C-16 21.34 -16 20.68 -16 20 C-17.98 20.33 -19.96 20.66 -22 21 C-20 19 -20 19 -16.875 17.9375 C-11.60630063 15.79262238 -8.49007181 11.31706709 -5 7 C-4.195625 6.030625 -3.39125 5.06125 -2.5625 4.0625 C-0.96781864 2.08866752 -0.96781864 2.08866752 0 0 Z " fill="#3F164D" transform="translate(246,216)"/>
<path d="M0 0 C0.70640625 -0.01998047 1.4128125 -0.03996094 2.140625 -0.06054688 C4.203125 -0.05859375 4.203125 -0.05859375 7.75 0.4375 C9.734375 2.46484375 9.734375 2.46484375 10.75 4.4375 C9.93917969 4.46328125 9.12835938 4.4890625 8.29296875 4.515625 C1.34673749 4.8714273 -4.4650292 5.86379766 -10.91015625 8.5 C-13.0171829 9.34421769 -15.03790129 9.94705779 -17.25 10.4375 C-17.25 9.7775 -17.25 9.1175 -17.25 8.4375 C-18.24 9.7575 -19.23 11.0775 -20.25 12.4375 C-19.91879228 9.45663056 -19.4630076 7.7160484 -17.625 5.3125 C-12.09512753 0.94681121 -6.84399018 -0.07022751 0 0 Z " fill="#260C3D" transform="translate(224.25,192.5625)"/>
<path d="M0 0 C0.99 0.66 1.98 1.32 3 2 C3.66 1.67 4.32 1.34 5 1 C5.99 3.31 6.98 5.62 8 8 C7.67 8.33 7.34 8.66 7 9 C7.99 9.66 8.98 10.32 10 11 C9.67 12.32 9.34 13.64 9 15 C3.72 14.67 -1.56 14.34 -7 14 C-7 13.67 -7 13.34 -7 13 C-3.7 12.67 -0.4 12.34 3 12 C-3.45301461 11.90911247 -9.60046458 12.17425349 -16 13 C-12.4602993 10.64019954 -10.00893712 10.41399192 -5.8125 9.875 C-4.54019531 9.70742187 -3.26789063 9.53984375 -1.95703125 9.3671875 C-0.98121094 9.24601563 -0.00539062 9.12484375 1 9 C1 8.34 1 7.68 1 7 C-4.28 6.67 -9.56 6.34 -15 6 C-15 5.67 -15 5.34 -15 5 C-13.71802734 4.81824219 -13.71802734 4.81824219 -12.41015625 4.6328125 C-11.30542969 4.46523437 -10.20070312 4.29765625 -9.0625 4.125 C-7.96035156 3.96257812 -6.85820312 3.80015625 -5.72265625 3.6328125 C-4.37494141 3.31957031 -4.37494141 3.31957031 -3 3 C-2.67 2.34 -2.34 1.68 -2 1 C-1.34 1.33 -0.68 1.66 0 2 C0 1.34 0 0.68 0 0 Z " fill="#602462" transform="translate(231,187)"/>
<path d="M0 0 C0 0.66 0 1.32 0 2 C-0.99 2.495 -0.99 2.495 -2 3 C-2.36801906 10.93285519 -1.77476512 17.5345605 1 25 C0.34 25 -0.32 25 -1 25 C-1.66 24.01 -2.32 23.02 -3 22 C-3.99 22 -4.98 22 -6 22 C-8.27061165 16.16128433 -9.65042817 11.28747229 -9 5 C-7.5 3 -7.5 3 -6 2 C-5.67 2.33 -5.34 2.66 -5 3 C-4.319375 2.2575 -4.319375 2.2575 -3.625 1.5 C-2 0 -2 0 0 0 Z " fill="#290D3F" transform="translate(234,160)"/>
<path d="M0 0 C2.41017722 4.82035444 1.53144519 11.97045672 -0.0625 17 C-1.3228592 20.00609168 -1.3228592 20.00609168 0 23 C-0.99 23.99 -1.98 24.98 -3 26 C-3 25.01 -3 24.02 -3 23 C-3.99 23.99 -4.98 24.98 -6 26 C-5.690625 25.236875 -5.38125 24.47375 -5.0625 23.6875 C-4.32106407 21.81210323 -3.63771783 19.91315348 -3 18 C-3.66 18 -4.32 18 -5 18 C-4.7525 16.515 -4.7525 16.515 -4.5 15 C-3.91525483 10.97267058 -3.92867976 7.06525377 -4 3 C-4.33 5.64 -4.66 8.28 -5 11 C-5.33 11 -5.66 11 -6 11 C-6 8.69 -6 6.38 -6 4 C-6.66 3.67 -7.32 3.34 -8 3 C-7.34 3 -6.68 3 -6 3 C-6 2.34 -6 1.68 -6 1 C-4 0 -4 0 0 0 Z " fill="#441850" transform="translate(265,162)"/>
<path d="M0 0 C0 0.66 0 1.32 0 2 C-1.22976562 2.18175781 -2.45953125 2.36351562 -3.7265625 2.55078125 C-5.35945672 2.80416139 -6.99226481 3.05809708 -8.625 3.3125 C-9.83736328 3.48942383 -9.83736328 3.48942383 -11.07421875 3.66992188 C-17.67058766 4.71568768 -22.75030617 6.75986267 -28 11 C-27.65120368 7.74456771 -26.97866739 6.98126893 -24.4375 4.75 C-23.2309375 3.88375 -23.2309375 3.88375 -22 3 C-22.66 2.67 -23.32 2.34 -24 2 C-23 0 -23 0 -21.28515625 -0.6328125 C-14.21482685 -2.1984742 -6.54490952 -3.77418123 0 0 Z " fill="#160534" transform="translate(238,200)"/>
<path d="M0 0 C0.33 0.99 0.66 1.98 1 3 C3.01508358 3.73323796 3.01508358 3.73323796 5 4 C5.33 5.32 5.66 6.64 6 8 C4.02 8.99 4.02 8.99 2 10 C2.33 8.68 2.66 7.36 3 6 C2.34 6 1.68 6 1 6 C0.67 6.99 0.34 7.98 0 9 C-0.99 9 -1.98 9 -3 9 C-3 9.66 -3 10.32 -3 11 C-3.804375 11.28875 -4.60875 11.5775 -5.4375 11.875 C-8.1326468 12.73262568 -8.1326468 12.73262568 -9 15 C-10.65 14.01 -12.3 13.02 -14 12 C-13.67 11.34 -13.34 10.68 -13 10 C-10.03 10.495 -10.03 10.495 -7 11 C-7.165 10.401875 -7.33 9.80375 -7.5 9.1875 C-8 7 -8 7 -8 4 C-6.5 2.3125 -6.5 2.3125 -5 1 C-5 1.66 -5 2.32 -5 3 C-4.34 3 -3.68 3 -3 3 C-3 2.34 -3 1.68 -3 1 C-2.01 0.67 -1.02 0.34 0 0 Z " fill="#F461BD" transform="translate(254,196)"/>
<path d="M0 0 C1 3 1 3 0 6 C-0.66 6 -1.32 6 -2 6 C-2.66 6.66 -3.32 7.32 -4 8 C-3.67 8.33 -3.34 8.66 -3 9 C-3.28604898 10.67542976 -3.61781233 12.34385343 -4 14 C-6.64 14 -9.28 14 -12 14 C-12 13.34 -12 12.68 -12 12 C-12.99 11.67 -13.98 11.34 -15 11 C-13.07423885 8.56070254 -11.19909405 6.19909405 -9 4 C-8.34 4.33 -7.68 4.66 -7 5 C-5.81231727 3.81231727 -4.63926438 2.60920308 -3.5 1.375 C-2 0 -2 0 0 0 Z " fill="#E65BB5" transform="translate(251,193)"/>
<path d="M0 0 C1.13199353 0.9080162 2.25532363 1.82683826 3.375 2.75 C4.00148438 3.26046875 4.62796875 3.7709375 5.2734375 4.296875 C7 6 7 6 7.90625 8.15625 C8.86298721 10.26402618 8.86298721 10.26402618 11.3828125 10.609375 C12.74019531 10.67898437 12.74019531 10.67898437 14.125 10.75 C15.03507812 10.80671875 15.94515625 10.8634375 16.8828125 10.921875 C17.58148438 10.94765625 18.28015625 10.9734375 19 11 C18.67 11.99 18.34 12.98 18 14 C11.8569122 14.54848998 8.61542058 13.67398815 3.46875 10.2890625 C2.9840625 9.86367187 2.499375 9.43828125 2 9 C2 8.34 2 7.68 2 7 C1.34 7 0.68 7 0 7 C-1.625 5 -1.625 5 -3 3 C-2.67 2.34 -2.34 1.68 -2 1 C-1.34 1.33 -0.68 1.66 0 2 C0 1.34 0 0.68 0 0 Z " fill="#451851" transform="translate(256,231)"/>
<path d="M0 0 C-0.20625 1.27875 -0.4125 2.5575 -0.625 3.875 C-1.24182633 9.18984603 -0.30010302 13.8533112 1 19 C-1.49092811 20.24546405 -2.41080733 19.7767578 -5 19 C-5.33 19.66 -5.66 20.32 -6 21 C-7.1920271 17.25835938 -6.47301199 14.92761586 -5.4140625 11.171875 C-4.73681133 7.61950096 -5.36806407 4.5388412 -6 1 C-4 0 -4 0 0 0 Z " fill="#EE5EB9" transform="translate(253,170)"/>
<path d="M0 0 C0.33 0.598125 0.66 1.19625 1 1.8125 C3.82220057 4.89928188 7.07668579 5.76988723 11 7 C11 7.66 11 8.32 11 9 C11.66 9 12.32 9 13 9 C13 9.66 13 10.32 13 11 C13.99 11.33 14.98 11.66 16 12 C16.33 12.66 16.66 13.32 17 14 C19.3140622 14.73075648 21.64828869 15.40138258 24 16 C24 16.33 24 16.66 24 17 C20.54399089 17.50066933 17.43877918 17.68273572 14 17 C11.773324 15.0950014 10.23309961 13.15644566 8.5703125 10.75 C8.05210937 10.1725 7.53390625 9.595 7 9 C5.68 9 4.36 9 3 9 C1.25 7.875 1.25 7.875 0 6 C-0.1875 2.8125 -0.1875 2.8125 0 0 Z " fill="#301044" transform="translate(251,224)"/>
<path d="M0 0 C-0.33 1.32 -0.66 2.64 -1 4 C0.32 2.68 1.64 1.36 3 0 C4.32 0.66 5.64 1.32 7 2 C6.01 2.33 5.02 2.66 4 3 C2.77479736 6.00847418 2.77479736 6.00847418 2 9 C0.35 9.33 -1.3 9.66 -3 10 C-3 9.34 -3 8.68 -3 8 C-3.66 8 -4.32 8 -5 8 C-5 7.34 -5 6.68 -5 6 C-5.99 6 -6.98 6 -8 6 C-8 6.66 -8 7.32 -8 8 C-9.32 7.67 -10.64 7.34 -12 7 C-10.06745228 4.9754262 -8.36841312 3.57894208 -6 2 C-5.67 2.33 -5.34 2.66 -5 3 C-4.319375 2.2575 -4.319375 2.2575 -3.625 1.5 C-2 0 -2 0 0 0 Z " fill="#CD51A5" transform="translate(257,202)"/>
<path d="M0 0 C0.99 0 1.98 0 3 0 C5.07277359 2.31193977 6.00978527 4.02935582 7 7 C9.01508358 7.73323796 9.01508358 7.73323796 11 8 C11 8.66 11 9.32 11 10 C11.89203125 10.04898438 12.7840625 10.09796875 13.703125 10.1484375 C14.87359375 10.22320312 16.0440625 10.29796875 17.25 10.375 C18.41015625 10.44460937 19.5703125 10.51421875 20.765625 10.5859375 C23.76726687 10.97020566 25.39983939 11.59116773 28 13 C24.6043303 13.08745946 21.20895227 13.14054444 17.8125 13.1875 C16.85279297 13.21263672 15.89308594 13.23777344 14.90429688 13.26367188 C5.67059049 13.3595235 5.67059049 13.3595235 2 10 C1.6875 6.8125 1.6875 6.8125 2 4 C1.01 4 0.02 4 -1 4 C-0.67 2.68 -0.34 1.36 0 0 Z " fill="#923880" transform="translate(253,189)"/>
<path d="M0 0 C1 3 1 3 0.06640625 5.41796875 C-4.08976419 13.07179951 -8.79618662 20.33563002 -17 24 C-16.34 24 -15.68 24 -15 24 C-15 24.66 -15 25.32 -15 26 C-17.31 26 -19.62 26 -22 26 C-22.33 24.68 -22.66 23.36 -23 22 C-22.40832031 21.84144531 -21.81664062 21.68289062 -21.20703125 21.51953125 C-15.83356026 19.93291094 -12.81172687 18.27375437 -9 14 C-8.34 14 -7.68 14 -7 14 C-6.6596875 13.0409375 -6.6596875 13.0409375 -6.3125 12.0625 C-4.51434174 7.86679739 -2.26095979 3.96099444 0 0 Z " fill="#170534" transform="translate(245,212)"/>
<path d="M0 0 C7.3695312 2.19517951 11.2009819 7.19982619 16 13 C12.09161134 13 10.88405893 11.49432124 8 9 C8.99 9.99 9.98 10.98 11 12 C10.67 12.66 10.34 13.32 10 14 C8.35 12.35 6.7 10.7 5 9 C4.67 9.66 4.34 10.32 4 11 C0 4.5 0 4.5 0 0 Z " fill="#57205C" transform="translate(255,210)"/>
<path d="M0 0 C0.94875 0.350625 1.8975 0.70125 2.875 1.0625 C5.87060172 2.35026777 5.87060172 2.35026777 8 1 C9 3 9 3 10 5 C11.84971696 6.05021103 11.84971696 6.05021103 14 7 C15.33333333 7.66666667 16.66666667 8.33333333 18 9 C17.67 10.32 17.34 11.64 17 13 C16.34 13 15.68 13 15 13 C15 15.64 15 18.28 15 21 C14.67 21 14.34 21 14 21 C13.9729957 19.54176788 13.95360213 18.08339325 13.9375 16.625 C13.92589844 15.81289062 13.91429687 15.00078125 13.90234375 14.1640625 C14 12 14 12 15 10 C14.195625 9.979375 13.39125 9.95875 12.5625 9.9375 C7.48148659 8.60039121 3.76582165 5.62355728 0 2 C0 1.34 0 0.68 0 0 Z " fill="#CB50A4" transform="translate(205,208)"/>
<path d="M0 0 C3.25597758 0.24118352 4.7276304 1.52224212 6.8125 3.875 C7.534375 4.90625 8.25625 5.9375 9 7 C8.67 7.99 8.34 8.98 8 10 C3.545 9.01 3.545 9.01 -1 8 C-2 4 -2 4 -1.0625 1.75 C-0.711875 1.1725 -0.36125 0.595 0 0 Z " fill="#F260BC" transform="translate(261,205)"/>
<path d="M0 0 C0.33 0 0.66 0 1 0 C1.33 2.64 1.66 5.28 2 8 C4.31 8.33 6.62 8.66 9 9 C9 8.34 9 7.68 9 7 C7.02 7.33 5.04 7.66 3 8 C5.5654594 5.4345406 7.47686668 5.45953913 11 5 C11 5.66 11 6.32 11 7 C12.65 6.34 14.3 5.68 16 5 C12.99407819 8.35275894 10.0598906 10.09962567 6 12 C5.01 12.66 4.02 13.32 3 14 C0.16168727 10.79147256 -0.64533229 8.25601248 -1 4 C-0.5625 1.625 -0.5625 1.625 0 0 Z " fill="#5B225E" transform="translate(221,229)"/>
<path d="M0 0 C1 3 1 3 0.06640625 5.234375 C-3.77264614 11.65606264 -8.14799575 17.57399787 -15 21 C-17.3329866 21.04022391 -19.66706666 21.04320247 -22 21 C-19.67342661 19.44895107 -17.48768904 18.17663299 -15 16.9375 C-13.9790625 16.42509766 -13.9790625 16.42509766 -12.9375 15.90234375 C-11 15 -11 15 -8 14 C-6.93794511 12.21117359 -6.93794511 12.21117359 -6 10 C-4.97185062 8.24202438 -3.92953531 6.49227573 -2.875 4.75 C-2.33617187 3.85796875 -1.79734375 2.9659375 -1.2421875 2.046875 C-0.83226562 1.37140625 -0.42234375 0.6959375 0 0 Z " fill="#150433" transform="translate(247,220)"/>
<path d="M0 0 C5.80165739 0.97458672 10.83982722 2.01253155 16 5 C16 5.66 16 6.32 16 7 C14.58376784 7.05447047 13.16691809 7.09300508 11.75 7.125 C10.96109375 7.14820313 10.1721875 7.17140625 9.359375 7.1953125 C6.73465159 6.97803407 5.21225836 6.41126827 3 5 C1.25 2.375 1.25 2.375 0 0 Z " fill="#57205C" transform="translate(266,207)"/>
<path d="M0 0 C-6 6 -6 6 -8.28515625 6.09765625 C-9.65994141 6.08025391 -9.65994141 6.08025391 -11.0625 6.0625 C-11.98160156 6.05347656 -12.90070313 6.04445312 -13.84765625 6.03515625 C-14.55792969 6.02355469 -15.26820313 6.01195312 -16 6 C-15.67 5.01 -15.34 4.02 -15 3 C-12.3828125 1.796875 -12.3828125 1.796875 -9.125 0.75 C-7.52011719 0.21632812 -7.52011719 0.21632812 -5.8828125 -0.328125 C-3 -1 -3 -1 0 0 Z " fill="#501D57" transform="translate(234,208)"/>
<path d="M0 0 C4.55555556 0.55555556 4.55555556 0.55555556 6 2 C6.125 4.5 6.125 4.5 6 7 C5 8 5 8 2 8.125 C-1 8 -1 8 -2 7 C-2.1875 4.5625 -2.1875 4.5625 -2 2 C-1.34 1.34 -0.68 0.68 0 0 Z " fill="#F3F2F5" transform="translate(158,270)"/>
<path d="M0 0 C18.08134758 -0.79868529 18.08134758 -0.79868529 25 4 C27.125 6 27.125 6 28 8 C27.6875 10.25 27.6875 10.25 27 12 C26.5359375 10.88625 26.5359375 10.88625 26.0625 9.75 C22.24774585 4.66366113 17.19177914 3.38601483 11.07421875 2.30859375 C7.39206965 1.78412689 3.7008428 1.37057187 0 1 C0 0.67 0 0.34 0 0 Z " fill="#160534" transform="translate(268,193)"/>
<path d="M0 0 C0.66 0.33 1.32 0.66 2 1 C3.66194453 1.35613097 5.328451 1.69208308 7 2 C7 1.34 7 0.68 7 0 C7.99 0 8.98 0 10 0 C10 0.66 10 1.32 10 2 C10.66 2 11.32 2 12 2 C12.33 4.31 12.66 6.62 13 9 C12.34 8.67 11.68 8.34 11 8 C11 6.68 11 5.36 11 4 C9.02 4 7.04 4 5 4 C4.896875 4.928125 4.79375 5.85625 4.6875 6.8125 C3.9929808 10.03254358 3.52259061 11.02579865 1 13 C1.5259375 11.329375 1.5259375 11.329375 2.0625 9.625 C3.37239331 6.19735524 3.37239331 6.19735524 2 4 C1.01 3.67 0.02 3.34 -1 3 C-0.67 2.01 -0.34 1.02 0 0 Z " fill="#8F377F" transform="translate(242,208)"/>
<path d="M0 0 C0.66 0.99 1.32 1.98 2 3 C0.94263343 6.65272086 -0.853666 9.86992958 -3 13 C-3.66 13 -4.32 13 -5 13 C-5.66 14.32 -6.32 15.64 -7 17 C-7.66 16.67 -8.32 16.34 -9 16 C-8.33333333 14.66666667 -7.66666667 13.33333333 -7 12 C-6.54625 11.05125 -6.0925 10.1025 -5.625 9.125 C-3.94175999 5.88799998 -2.07050424 2.99866131 0 0 Z " fill="#511D58" transform="translate(241,213)"/>
<path d="M0 0 C0.66 0 1.32 0 2 0 C0.54494569 3.39512672 -1.07968259 5.71110257 -4 8 C-7.75 8.75 -7.75 8.75 -11 9 C-11 7.68 -11 6.36 -11 5 C-9.93458984 4.58427734 -9.93458984 4.58427734 -8.84765625 4.16015625 C-7.46900391 3.61681641 -7.46900391 3.61681641 -6.0625 3.0625 C-5.14597656 2.70285156 -4.22945312 2.34320313 -3.28515625 1.97265625 C-1.07581467 1.2003782 -1.07581467 1.2003782 0 0 Z " fill="#39144A" transform="translate(233,225)"/>
<path d="M0 0 C2.375 0.3125 2.375 0.3125 5 1 C5.66 1.99 6.32 2.98 7 4 C7.66 3.34 8.32 2.68 9 2 C9.75 4.25 9.75 4.25 10 7 C8.0625 9.3125 8.0625 9.3125 6 11 C4.9944239 9.54550599 3.99569565 8.08627557 3 6.625 C2.443125 5.81289062 1.88625 5.00078125 1.3125 4.1640625 C0 2 0 2 0 0 Z " fill="#3C154C" transform="translate(288,199)"/>
<path d="M0 0 C0 0.33 0 0.66 0 1 C-1.21623047 1.03867188 -1.21623047 1.03867188 -2.45703125 1.078125 C-9.40326251 1.4339273 -15.2150292 2.42629766 -21.66015625 5.0625 C-23.7671829 5.90671769 -25.78790129 6.50955779 -28 7 C-24.22913085 2.01706577 -20.24822442 0.76309823 -14.2265625 -0.57421875 C-9.37008521 -1.21508561 -4.81467225 -0.78664921 0 0 Z " fill="#130432" transform="translate(235,196)"/>
<path d="M0 0 C1.17369141 -0.02513672 1.17369141 -0.02513672 2.37109375 -0.05078125 C5.02377163 0.38896749 5.885467 1.26878454 7.5625 3.3125 C6.5725 4.3025 5.5825 5.2925 4.5625 6.3125 C4.2325 5.3225 3.9025 4.3325 3.5625 3.3125 C2.2425 3.3125 0.9225 3.3125 -0.4375 3.3125 C-0.7675 4.9625 -1.0975 6.6125 -1.4375 8.3125 C-2.0975 7.3225 -2.7575 6.3325 -3.4375 5.3125 C-4.0975 5.9725 -4.7575 6.6325 -5.4375 7.3125 C-6.0625 4.9375 -6.0625 4.9375 -6.4375 2.3125 C-4.02263057 -0.10236943 -3.31042211 0.0163075 0 0 Z " fill="#652665" transform="translate(230.4375,157.6875)"/>
<path d="M0 0 C2.3186291 2.23275395 4.31248824 4.41665099 6.25 7 C9.19496998 10.61055143 12.80693263 12.16605403 17 14 C18.33657171 14.6601502 19.67083681 15.32505745 21 16 C17.81114009 17.40309836 16.74664419 16.90389952 13.375 15.625 C11.57847984 14.76000881 9.78341121 13.89170561 8 13 C8 12.34 8 11.68 8 11 C7.34 11 6.68 11 6 11 C6 10.34 6 9.68 6 9 C5.34 9 4.68 9 4 9 C0 3.70588235 0 3.70588235 0 0 Z " fill="#180635" transform="translate(256,222)"/>
<path d="M0 0 C0.99 1.0209375 0.99 1.0209375 2 2.0625 C9.4225068 9.75439148 9.4225068 9.75439148 19 14 C19 14.66 19 15.32 19 16 C13.13998008 15.706999 9.14453354 12.96570849 5 9 C5 8.34 5 7.68 5 7 C4.34 7 3.68 7 3 7 C0 2.61538462 0 2.61538462 0 0 Z " fill="#170534" transform="translate(259,217)"/>
<path d="M0 0 C0.33 0.66 0.66 1.32 1 2 C-1.31 2.33 -3.62 2.66 -6 3 C-5.67 3.66 -5.34 4.32 -5 5 C-4.92934383 7.04055005 -4.91578024 9.08334257 -4.9375 11.125 C-4.94652344 12.22070312 -4.95554687 13.31640625 -4.96484375 14.4453125 C-4.97644531 15.28835937 -4.98804688 16.13140625 -5 17 C-5.33 17 -5.66 17 -6 17 C-6.06058594 16.22914063 -6.12117188 15.45828125 -6.18359375 14.6640625 C-6.26738281 13.66117188 -6.35117187 12.65828125 -6.4375 11.625 C-6.51871094 10.62726563 -6.59992188 9.62953125 -6.68359375 8.6015625 C-6.84965626 6.02072387 -6.84965626 6.02072387 -8 4 C-10.02463255 3.34786708 -10.02463255 3.34786708 -12 3 C-8.2391768 -0.7608232 -5.0273023 -0.25136512 0 0 Z " fill="#762D6F" transform="translate(274,158)"/>
<path d="M0 0 C1.1875 1.5625 1.1875 1.5625 2 4 C-0.24489796 10.62244898 -0.24489796 10.62244898 -3 12 C-5.69565202 11.83219837 -8.32405554 11.38844355 -11 11 C-11 10.67 -11 10.34 -11 10 C-9.35 9.67 -7.7 9.34 -6 9 C-8.475 8.01 -8.475 8.01 -11 7 C-9 6 -9 6 -6.5625 6.5625 C-3.76814291 7.34146478 -3.76814291 7.34146478 -1 5 C-0.27034634 2.43717258 -0.27034634 2.43717258 0 0 Z " fill="#7B2F72" transform="translate(278,231)"/>
<path d="M0 0 C0.828711 2.97240144 1.2029057 5.80133597 1.4375 8.875 C1.80072899 12.8353677 2.53040297 16.27702085 4 20 C3.01 20 2.02 20 1 20 C-1.28067632 14.13540375 -2.54405101 9.31099169 -2 3 C-1.34 2.01 -0.68 1.02 0 0 Z " fill="#150433" transform="translate(227,162)"/>
<path d="M0 0 C2.68756955 -0.02720824 5.37485798 -0.0469388 8.0625 -0.0625 C8.81466797 -0.07087891 9.56683594 -0.07925781 10.34179688 -0.08789062 C14.99786818 -0.10804678 19.43082922 0.05526898 24 1 C24.33 1.66 24.66 2.32 25 3 C24.34 3 23.68 3 23 3 C23.33 3.99 23.66 4.98 24 6 C23.34 6 22.68 6 22 6 C22 5.34 22 4.68 22 4 C14.6802723 2.13905228 7.53216715 1.44238385 0 1 C0 0.67 0 0.34 0 0 Z " fill="#2A0D40" transform="translate(265,196)"/>
<path d="M0 0 C0.66 0 1.32 0 2 0 C2 0.66 2 1.32 2 2 C2.66 2 3.32 2 4 2 C4.33 2.66 4.66 3.32 5 4 C5.639375 4.103125 6.27875 4.20625 6.9375 4.3125 C7.618125 4.539375 8.29875 4.76625 9 5 C10.25 7.5625 10.25 7.5625 11 10 C4.125 7.25 4.125 7.25 3 5 C2.67 5.66 2.34 6.32 2 7 C1.34 7 0.68 7 0 7 C-0.66 5.35 -1.32 3.7 -2 2 C-1.34 2 -0.68 2 0 2 C0 1.34 0 0.68 0 0 Z " fill="#5B225E" transform="translate(249,221)"/>
<path d="M0 0 C0.33 0 0.66 0 1 0 C1.21192221 5.19209404 0.5912689 9.126739 -1 14 C-1.33 12.68 -1.66 11.36 -2 10 C-2.99 10.495 -2.99 10.495 -4 11 C-4.6484375 9.234375 -4.6484375 9.234375 -5 7 C-4.0390625 5.078125 -4.0390625 5.078125 -2.625 3.25 C-2.16351563 2.63640625 -1.70203125 2.0228125 -1.2265625 1.390625 C-0.82179687 0.93171875 -0.41703125 0.4728125 0 0 Z " fill="#531E5A" transform="translate(256,167)"/>
<path d="M0 0 C0.66 0 1.32 0 2 0 C4.77089332 4.88981175 3.93280688 9.6764052 3 15 C2.67 15.66 2.34 16.32 2 17 C1.34 17 0.68 17 0 17 C0 11.39 0 5.78 0 0 Z " fill="#170534" transform="translate(268,161)"/>
<path d="M0 0 C0.66 0.66 1.32 1.32 2 2 C2.66 1.34 3.32 0.68 4 0 C5.625 3.25 5.625 3.25 7 7 C6.1875 9.4375 6.1875 9.4375 5 11 C3.68 10.67 2.36 10.34 1 10 C1.33 9.01 1.66 8.02 2 7 C1.36729133 5.65022151 0.69937532 4.31647119 0 3 C0 2.01 0 1.02 0 0 Z " fill="#511D58" transform="translate(240,180)"/>
<path d="M0 0 C2.76213965 2.37485552 2.97925681 2.79602527 3.375 6.6875 C3.2232624 11.23119801 1.77986072 14.84699165 0 19 C-0.66 19 -1.32 19 -2 19 C-1.855625 18.46632812 -1.71125 17.93265625 -1.5625 17.3828125 C-0.09631589 11.49771237 0.22734497 6.04990224 0 0 Z " fill="#150433" transform="translate(272,162)"/>
<path d="M0 0 C0.66 0 1.32 0 2 0 C2 0.66 2 1.32 2 2 C2.66 2 3.32 2 4 2 C4.33 1.34 4.66 0.68 5 0 C6.65 0 8.3 0 10 0 C9.67 1.65 9.34 3.3 9 5 C6.36 5 3.72 5 1 5 C1 4.34 1 3.68 1 3 C0.01 2.67 -0.98 2.34 -2 2 C-1.34 1.34 -0.68 0.68 0 0 Z " fill="#CA50A3" transform="translate(238,202)"/>
<path d="M0 0 C1.26237731 2.52475462 1.09856404 4.31200466 1.0625 7.125 C1.05347656 8.03507813 1.04445312 8.94515625 1.03515625 9.8828125 C1.02355469 10.58148438 1.01195312 11.28015625 1 12 C1.99 12 2.98 12 4 12 C4.33 14.31 4.66 16.62 5 19 C4.01 18.67 3.02 18.34 2 18 C2 17.34 2 16.68 2 16 C1.34 16 0.68 16 0 16 C-1.08489672 12.74530985 -1.13323992 10.29456791 -1.125 6.875 C-1.12757813 5.79992187 -1.13015625 4.72484375 -1.1328125 3.6171875 C-1 1 -1 1 0 0 Z " fill="#4C1C55" transform="translate(232,162)"/>
<path d="M0 0 C3.39914975 1.13304992 4.05254451 2.12518475 6 5 C5.02160156 4.98839844 4.04320312 4.97679687 3.03515625 4.96484375 C-4.0552013 4.9160409 -10.96459222 5.01257435 -18 6 C-13.64248202 3.09498801 -9.18874079 3.15044884 -4.0546875 2.5625 C-3.04664063 2.376875 -2.03859375 2.19125 -1 2 C-0.67 1.34 -0.34 0.68 0 0 Z " fill="#762D6F" transform="translate(233,194)"/>
<path d="M0 0 C0.33 0.99 0.66 1.98 1 3 C0.67 3.66 0.34 4.32 0 5 C0.66 5 1.32 5 2 5 C1.814375 5.78375 1.62875 6.5675 1.4375 7.375 C0.74037734 9.97089775 0.74037734 9.97089775 2 12 C1.34 12.66 0.68 13.32 0 14 C-0.33 13.01 -0.66 12.02 -1 11 C-1.66 11 -2.32 11 -3 11 C-4 8 -4 8 -3.22265625 5.95703125 C-2.83980469 5.24933594 -2.45695313 4.54164063 -2.0625 3.8125 C-1.68222656 3.09707031 -1.30195313 2.38164062 -0.91015625 1.64453125 C-0.60980469 1.10183594 -0.30945313 0.55914062 0 0 Z " fill="#4E1C56" transform="translate(257,178)"/>
<path d="M0 0 C0.33 0.66 0.66 1.32 1 2 C2.04220703 1.73896484 2.04220703 1.73896484 3.10546875 1.47265625 C6.32656869 0.94667367 9.06909262 1.11672345 12.3125 1.4375 C13.91544922 1.59025391 13.91544922 1.59025391 15.55078125 1.74609375 C16.76314453 1.87177734 16.76314453 1.87177734 18 2 C18 2.33 18 2.66 18 3 C16.46279297 3.09087891 16.46279297 3.09087891 14.89453125 3.18359375 C13.53384305 3.26805026 12.17316657 3.35269567 10.8125 3.4375 C10.13896484 3.47681641 9.46542969 3.51613281 8.77148438 3.55664062 C5.10300898 3.78927565 1.58305794 4.17207011 -2 5 C-1.34 3.35 -0.68 1.7 0 0 Z " fill="#59215D" transform="translate(268,187)"/>
<path d="M0 0 C0.99 0 1.98 0 3 0 C3.33 0.66 3.66 1.32 4 2 C4.66 1.67 5.32 1.34 6 1 C5.34 2.65 4.68 4.3 4 6 C1.36 6.33 -1.28 6.66 -4 7 C-2.68 4.69 -1.36 2.38 0 0 Z " fill="#321145" transform="translate(267,183)"/>
<path d="M0 0 C4.875 4.625 4.875 4.625 6 8 C5.01 9.485 5.01 9.485 4 11 C3.67 9.68 3.34 8.36 3 7 C3 9.31 3 11.62 3 14 C0.81005752 10.71508627 0.64722661 9.16904361 0.375 5.3125 C0.30023438 4.31863281 0.22546875 3.32476562 0.1484375 2.30078125 C0.09945312 1.54152344 0.05046875 0.78226563 0 0 Z " fill="#531E59" transform="translate(243,167)"/>
<path d="M0 0 C0 0.66 0 1.32 0 2 C-0.99 2 -1.98 2 -3 2 C-2.67 2.66 -2.34 3.32 -2 4 C-1.92966231 5.87379605 -1.9156978 7.75001102 -1.9375 9.625 C-1.94652344 10.62789062 -1.95554687 11.63078125 -1.96484375 12.6640625 C-1.97644531 13.43492187 -1.98804688 14.20578125 -2 15 C-2.33 15 -2.66 15 -3 15 C-3 11.7 -3 8.4 -3 5 C-3.99 5 -4.98 5 -6 5 C-6 3.35 -6 1.7 -6 0 C-2.25 -1.125 -2.25 -1.125 0 0 Z " fill="#A7418E" transform="translate(283,216)"/>
<path d="M0 0 C1.32 0 2.64 0 4 0 C4 0.66 4 1.32 4 2 C4.99 1.67 5.98 1.34 7 1 C8.56118428 0.93259135 10.1250252 0.91485544 11.6875 0.9375 C12.89986328 0.95103516 12.89986328 0.95103516 14.13671875 0.96484375 C15.05904297 0.98224609 15.05904297 0.98224609 16 1 C16 1.33 16 1.66 16 2 C15.21496094 2.12117187 14.42992187 2.24234375 13.62109375 2.3671875 C7.94948787 3.27186083 2.47507746 4.2579299 -3 6 C-2.67 5.34 -2.34 4.68 -2 4 C-1.34 4 -0.68 4 0 4 C0 2.68 0 1.36 0 0 Z " fill="#4D1C56" transform="translate(220,204)"/>
<path d="M0 0 C2 3 2 3 2 6 C2.66 6 3.32 6 4 6 C3.35455571 9.48539917 1.89865603 12.02819057 0 15 C-0.33 14.34 -0.66 13.68 -1 13 C-0.0625 10.875 -0.0625 10.875 1 9 C0.34 9 -0.32 9 -1 9 C-0.67 6.03 -0.34 3.06 0 0 Z " fill="#290D3F" transform="translate(258,174)"/>
<path d="M0 0 C1.56469101 1.99142493 2.91884262 3.82754057 4 6.125 C4.98810386 8.33377181 4.98810386 8.33377181 8 10 C8.6875 12.125 8.6875 12.125 9 14 C6.64453125 13.8046875 6.64453125 13.8046875 4 13 C2.63671875 10.8203125 2.63671875 10.8203125 1.6875 8.125 C1.19830078 6.79855469 1.19830078 6.79855469 0.69921875 5.4453125 C0 3 0 3 0 0 Z " fill="#280C3F" transform="translate(254,212)"/>
<path d="M0 0 C0.66 0.33 1.32 0.66 2 1 C-0.40242227 4.17462943 -2.61713276 6.85751741 -6 9 C-6.66 9 -7.32 9 -8 9 C-6.52459016 3.3442623 -6.52459016 3.3442623 -4 1.6875 C-3.34 1.460625 -2.68 1.23375 -2 1 C-1.34 0.67 -0.68 0.34 0 0 Z " fill="#351247" transform="translate(233,213)"/>
<path d="M0 0 C0.33 0.99 0.66 1.98 1 3 C3.01508358 3.73323796 3.01508358 3.73323796 5 4 C5.33 5.32 5.66 6.64 6 8 C4.02 8.99 4.02 8.99 2 10 C2 8.68 2 7.36 2 6 C0.0399719 4.36323743 0.0399719 4.36323743 -2 3 C-2 2.34 -2 1.68 -2 1 C-1.34 0.67 -0.68 0.34 0 0 Z " fill="#E35AB3" transform="translate(254,196)"/>
<path d="M0 0 C0.33 0.66 0.66 1.32 1 2 C1.99 2.33 2.98 2.66 4 3 C3.16855469 3.48919922 3.16855469 3.48919922 2.3203125 3.98828125 C1.23363281 4.64376953 1.23363281 4.64376953 0.125 5.3125 C-0.59429687 5.74175781 -1.31359375 6.17101562 -2.0546875 6.61328125 C-4.26846333 8.01752375 -4.26846333 8.01752375 -6 11 C-6.66 10.34 -7.32 9.68 -8 9 C-7.34 9 -6.68 9 -6 9 C-5.690625 8.38125 -5.38125 7.7625 -5.0625 7.125 C-4.375 5.75 -3.6875 4.375 -3 3 C-3.66 2.67 -4.32 2.34 -5 2 C-2 0 -2 0 0 0 Z " fill="#5B225F" transform="translate(215,200)"/>
<path d="M0 0 C0.66 0.33 1.32 0.66 2 1 C1.67 1.33 1.34 1.66 1 2 C2.32 2.33 3.64 2.66 5 3 C4 5 3 7 2 9 C0 8 0 8 -1 7 C-1.125 4 -1.125 4 -1 1 C-0.67 0.67 -0.34 0.34 0 0 Z " fill="#331146" transform="translate(207,200)"/>
<path d="M0 0 C0.33 0 0.66 0 1 0 C1.1953125 2.01822917 1.390625 4.03645833 1.5859375 6.0546875 C1.86374749 8.22668245 1.86374749 8.22668245 4 10 C4.99 11.485 4.99 11.485 6 13 C5.01 13.33 4.02 13.66 3 14 C0.16168727 10.79147256 -0.64533229 8.25601248 -1 4 C-0.5625 1.625 -0.5625 1.625 0 0 Z " fill="#9C3D87" transform="translate(221,229)"/>
<path d="M0 0 C1.65 1.32 3.3 2.64 5 4 C4.01 4.33 3.02 4.66 2 5 C1.26676204 7.01508358 1.26676204 7.01508358 1 9 C1 8.34 1 7.68 1 7 C0.34 7 -0.32 7 -1 7 C-1.625 5.1875 -1.625 5.1875 -2 3 C-1.34 2.01 -0.68 1.02 0 0 Z " fill="#D856AC" transform="translate(241,197)"/>
<path d="M0 0 C1.08209949 3.24629847 0.78140875 3.87436498 0 7 C0.33 7.99 0.66 8.98 1 10 C0.01 10.99 -0.98 11.98 -2 13 C-2 12.01 -2 11.02 -2 10 C-2.99 10.99 -3.98 11.98 -5 13 C-4.731875 12.34 -4.46375 11.68 -4.1875 11 C-2.74294953 7.35060933 -1.37128822 3.67754567 0 0 Z " fill="#612462" transform="translate(264,175)"/>
<path d="M0 0 C1.89685547 0.05220703 1.89685547 0.05220703 3.83203125 0.10546875 C5.74048828 0.14607422 5.74048828 0.14607422 7.6875 0.1875 C9.15123047 0.23970703 9.15123047 0.23970703 10.64453125 0.29296875 C10.64453125 0.62296875 10.64453125 0.95296875 10.64453125 1.29296875 C5.03453125 1.95296875 -0.57546875 2.61296875 -6.35546875 3.29296875 C-3.35546875 0.29296875 -3.35546875 0.29296875 0 0 Z " fill="#130432" transform="translate(218.35546875,189.70703125)"/>
<path d="M0 0 C0.99 0 1.98 0 3 0 C3 0.66 3 1.32 3 2 C3.66 2.33 4.32 2.66 5 3 C4.34 3 3.68 3 3 3 C3 4.98 3 6.96 3 9 C2.67 9 2.34 9 2 9 C1.67 7.35 1.34 5.7 1 4 C0.67 5.98 0.34 7.96 0 10 C-0.33 10 -0.66 10 -1 10 C-1.125 2.25 -1.125 2.25 0 0 Z " fill="#57205C" transform="translate(238,163)"/>
<path d="M0 0 C2.0625 0.4375 2.0625 0.4375 4 1 C3.67 2.32 3.34 3.64 3 5 C2.34 5 1.68 5 1 5 C1 7.64 1 10.28 1 13 C0.67 13 0.34 13 0 13 C-0.0270043 11.54176788 -0.04639787 10.08339325 -0.0625 8.625 C-0.07410156 7.81289062 -0.08570313 7.00078125 -0.09765625 6.1640625 C0 4 0 4 1 2 C0.34 1.67 -0.32 1.34 -1 1 C-0.67 0.67 -0.34 0.34 0 0 Z " fill="#973A83" transform="translate(219,216)"/>
<path d="M0 0 C2.375 0.25 2.375 0.25 5 1 C6.375 2.9375 6.375 2.9375 7 5 C6.67 5.66 6.34 6.32 6 7 C5.01 6.67 4.02 6.34 3 6 C3 5.34 3 4.68 3 4 C2.01 3.67 1.02 3.34 0 3 C0 2.01 0 1.02 0 0 Z " fill="#321145" transform="translate(236,187)"/>
<path d="M0 0 C1.74627478 2.61941217 2.38722388 4.03824877 3 7 C0.97954558 6.39816251 -1.02111039 5.72693904 -3 5 C-3.33 4.34 -3.66 3.68 -4 3 C-3.34 3 -2.68 3 -2 3 C-2 2.34 -2 1.68 -2 1 C-1.34 0.67 -0.68 0.34 0 0 Z " fill="#531E59" transform="translate(275,221)"/>
<path d="M0 0 C0.99 0.33 1.98 0.66 3 1 C3.33 2.65 3.66 4.3 4 6 C3.01 6.495 3.01 6.495 2 7 C1.34 8.32 0.68 9.64 0 11 C0 7.37 0 3.74 0 0 Z " fill="#E85CB6" transform="translate(220,222)"/>
<path d="M0 0 C0.66 0.99 1.32 1.98 2 3 C1.125 5.6875 1.125 5.6875 0 8 C-0.99 8 -1.98 8 -3 8 C-3.75 6.25 -3.75 6.25 -4 4 C-2.0625 1.75 -2.0625 1.75 0 0 Z " fill="#772D6F" transform="translate(296,201)"/>
<path d="M0 0 C0.99 0 1.98 0 3 0 C4.75 1.75 4.75 1.75 6 4 C5.6875 6.25 5.6875 6.25 5 8 C4.34 8 3.68 8 3 8 C2.67 6.68 2.34 5.36 2 4 C1.01 4 0.02 4 -1 4 C-0.67 2.68 -0.34 1.36 0 0 Z " fill="#9C3C86" transform="translate(253,189)"/>
<path d="M0 0 C-0.66 2.31 -1.32 4.62 -2 7 C-2.66 7 -3.32 7 -4 7 C-4.66 5.02 -5.32 3.04 -6 1 C-4 0 -4 0 0 0 Z " fill="#FB64C2" transform="translate(253,170)"/>
<path d="M0 0 C1.65 1.32 3.3 2.64 5 4 C4.67 5.32 4.34 6.64 4 8 C2.68 7.67 1.36 7.34 0 7 C-0.93423645 3.98968256 -1.04449911 3.13349732 0 0 Z " fill="#712B6C" transform="translate(203,201)"/>
<path d="M0 0 C0.66 0 1.32 0 2 0 C2.33 1.32 2.66 2.64 3 4 C4.65 4.33 6.3 4.66 8 5 C7.67 5.99 7.34 6.98 7 8 C4.69 7.01 2.38 6.02 0 5 C0.33 4.34 0.66 3.68 1 3 C0.67 2.01 0.34 1.02 0 0 Z " fill="#913880" transform="translate(237,191)"/>
<path d="M0 0 C0.33 0.66 0.66 1.32 1 2 C-1.31 3.65 -3.62 5.3 -6 7 C-6.33 5.68 -6.66 4.36 -7 3 C-6.34 3 -5.68 3 -5 3 C-4.67 2.34 -4.34 1.68 -4 1 C-1.9375 0.375 -1.9375 0.375 0 0 Z " fill="#CC50A4" transform="translate(293,209)"/>
<path d="M0 0 C3.77545388 1.09068668 6.47043472 1.9083091 9 5 C8.67 5.99 8.34 6.98 8 8 C7.13375 7.071875 7.13375 7.071875 6.25 6.125 C4.19750179 4.18652947 2.56633418 3.09985751 0 2 C0 1.34 0 0.68 0 0 Z " fill="#150533" transform="translate(281,203)"/>
<path d="M0 0 C2.09350689 3.4019487 2.17942163 6.05272412 2 10 C1.34 9.67 0.68 9.34 0 9 C0 8.34 0 7.68 0 7 C-0.66 7 -1.32 7 -2 7 C-2 6.01 -2 5.02 -2 4 C-1.34 4 -0.68 4 0 4 C0 2.68 0 1.36 0 0 Z " fill="#3E154C" transform="translate(241,173)"/>
<path d="M0 0 C2 2 2 2 2.125 4.625 C2.08375 5.40875 2.0425 6.1925 2 7 C1.34 7 0.68 7 0 7 C0 6.01 0 5.02 0 4 C-0.99 3.67 -1.98 3.34 -3 3 C-2 1 -2 1 0 0 Z " fill="#4C1C55" transform="translate(297,197)"/>
<path d="M0 0 C0.99 0.66 1.98 1.32 3 2 C2.01 3.98 1.02 5.96 0 8 C-0.66 7.34 -1.32 6.68 -2 6 C-1.44444444 1.44444444 -1.44444444 1.44444444 0 0 Z " fill="#702A6B" transform="translate(260,190)"/>
<path d="M0 0 C0.99 0.33 1.98 0.66 3 1 C3 1.99 3 2.98 3 4 C1.35 4.33 -0.3 4.66 -2 5 C-2 3.68 -2 2.36 -2 1 C-1.34 0.67 -0.68 0.34 0 0 Z " fill="#D454A9" transform="translate(253,192)"/>
<path d="M0 0 C1.33841672 0.31229724 2.67139075 0.64830932 4 1 C4.99 1 5.98 1 7 1 C6.67 1.99 6.34 2.98 6 4 C4.35 3.67 2.7 3.34 1 3 C0.67 3.66 0.34 4.32 0 5 C-0.5625 3.0625 -0.5625 3.0625 -1 1 C-0.67 0.67 -0.34 0.34 0 0 Z " fill="#FB64C1" transform="translate(247,186)"/>
<path d="M0 0 C0.33 0.66 0.66 1.32 1 2 C1.99 1.67 2.98 1.34 4 1 C3.67 1.99 3.34 2.98 3 4 C2.34 4 1.68 4 1 4 C1 4.99 1 5.98 1 7 C0.34 7 -0.32 7 -1 7 C-0.67 4.69 -0.34 2.38 0 0 Z " fill="#4B1B54" transform="translate(202,197)"/>
<path d="M0 0 C3.37462715 0.54723683 5.08235 1.0549 8 3 C8 3.66 8 4.32 8 5 C7.236875 4.690625 6.47375 4.38125 5.6875 4.0625 C3.81210323 3.32106407 1.91315348 2.63771783 0 2 C0 1.34 0 0.68 0 0 Z " fill="#190635" transform="translate(276,208)"/>
</svg>
